<?xml version="1.0" encoding="UTF-8"?>
<svg xmlns="http://www.w3.org/2000/svg" xmlns:xlink="http://www.w3.org/1999/xlink" width="210px" height="167px" viewBox="0 0 209 167" version="1.1">
<g id="surface1">
<path style=" stroke:none;fill-rule:evenodd;fill:rgb(47.45098%,32.156863%,70.196078%);fill-opacity:1;" d="M 43.410156 0.0195312 C 31.484375 0.0195312 22.660156 10.488281 23.054688 21.839844 C 23.433594 32.742188 22.941406 46.867188 19.398438 58.386719 C 15.839844 69.9375 9.824219 77.257812 0 78.195312 L 0 88.804688 C 9.824219 89.746094 15.839844 97.0625 19.394531 108.613281 C 22.941406 120.132812 23.433594 134.257812 23.054688 145.160156 C 22.660156 156.511719 31.484375 166.980469 43.410156 166.980469 L 165.605469 166.980469 C 177.53125 166.980469 186.355469 156.511719 185.957031 145.160156 C 185.578125 134.257812 186.070312 120.132812 189.617188 108.613281 C 193.175781 97.0625 199.175781 89.742188 209 88.804688 L 209 78.195312 C 199.175781 77.253906 193.175781 69.9375 189.617188 58.386719 C 186.070312 46.871094 185.578125 32.742188 185.957031 21.839844 C 186.355469 10.488281 177.53125 0.0195312 165.605469 0.0195312 Z M 141.695312 102.792969 C 141.695312 118.425781 130.070312 127.90625 110.773438 127.90625 L 77.933594 127.90625 C 75.976562 127.90625 74.390625 126.3125 74.390625 124.351562 L 74.390625 42.648438 C 74.390625 40.6875 75.976562 39.097656 77.933594 39.097656 L 110.589844 39.097656 C 126.675781 39.097656 137.234375 47.835938 137.234375 61.25 C 137.234375 70.667969 130.132812 79.097656 121.082031 80.578125 L 121.082031 81.066406 C 133.402344 82.421875 141.695312 90.976562 141.695312 102.792969 Z M 107.195312 50.355469 L 88.46875 50.355469 L 88.46875 76.882812 L 104.238281 76.882812 C 116.433594 76.882812 123.15625 71.960938 123.15625 63.160156 C 123.15625 54.910156 117.375 50.355469 107.195312 50.355469 Z M 88.46875 87.40625 L 88.46875 116.640625 L 107.882812 116.640625 C 120.578125 116.640625 127.300781 111.53125 127.300781 101.929688 C 127.300781 92.332031 120.390625 87.40625 107.066406 87.40625 Z M 88.46875 87.40625 "/>
</g>
</svg>
