<?xml version="1.0" encoding="UTF-8"?>
<svg xmlns="http://www.w3.org/2000/svg" xmlns:xlink="http://www.w3.org/1999/xlink" width="49px" height="37px" viewBox="0 0 49 37" version="1.1">
<g id="surface1">
<path style=" stroke:none;fill-rule:evenodd;fill:rgb(47.45098%,32.156863%,70.196078%);fill-opacity:1;" d="M 11.136719 0.00390625 C 8.53125 0.00390625 6.59375 2.320312 6.6875 4.835938 C 6.765625 7.253906 6.660156 10.382812 5.882812 12.9375 C 5.109375 15.496094 3.789062 17.117188 1.640625 17.324219 L 1.640625 19.671875 C 3.789062 19.882812 5.109375 21.503906 5.882812 24.0625 C 6.660156 26.617188 6.765625 29.746094 6.6875 32.164062 C 6.59375 34.679688 8.53125 36.996094 11.136719 36.996094 L 37.867188 36.996094 C 40.472656 36.996094 42.40625 34.679688 42.316406 32.164062 C 42.238281 29.746094 42.34375 26.617188 43.117188 24.0625 C 43.894531 21.503906 45.210938 19.882812 47.359375 19.671875 L 47.359375 17.324219 C 45.210938 17.117188 43.894531 15.496094 43.117188 12.9375 C 42.34375 10.382812 42.238281 7.253906 42.316406 4.835938 C 42.40625 2.320312 40.472656 0.00390625 37.867188 0.00390625 Z M 32.640625 22.773438 C 32.640625 26.238281 30.09375 28.335938 25.871094 28.335938 L 18.691406 28.335938 C 18.257812 28.335938 17.914062 27.984375 17.914062 27.550781 L 17.914062 9.445312 C 17.914062 9.015625 18.257812 8.664062 18.691406 8.664062 L 25.832031 8.664062 C 29.347656 8.664062 31.660156 10.597656 31.660156 13.574219 C 31.660156 15.65625 30.105469 17.523438 28.128906 17.855469 L 28.128906 17.960938 C 30.820312 18.257812 32.640625 20.15625 32.640625 22.773438 Z M 25.085938 11.15625 L 20.992188 11.15625 L 20.992188 17.03125 L 24.441406 17.03125 C 27.113281 17.03125 28.582031 15.941406 28.582031 13.992188 C 28.582031 12.167969 27.316406 11.15625 25.085938 11.15625 Z M 20.992188 19.367188 L 20.992188 25.84375 L 25.242188 25.84375 C 28.015625 25.84375 29.488281 24.710938 29.488281 22.582031 C 29.488281 20.457031 27.976562 19.367188 25.0625 19.367188 Z M 20.992188 19.367188 "/>
</g>
</svg>
